# xmcd
#
# Track frame offsets:
#  150
#  16179
#  30873
#  49928
#  67117
#  89060
#  107067
#  126515
#  141781
#  158856
#  175788
#  191627
#  208880
#  233061
#  252793
#  271639
#
# Disc length: 3959 seconds
#
# Revision: 0
# Processed by: cddbd v1.5.1PL2 Copyright (c) Steve Scherf et al.
# Submitted via: Collectorz.com_Music_Collector 6.11
#
DISCID=df0f7510
DTITLE=Edwin Starr - The Very Best Of Edwin Starr
DYEAR=1999
DGENRE=
TTITLE0=Contact
TTITLE1=Love Train
TTITLE2=Ain't Gonna Bump No More (With No Big Fat Woman)
TTITLE3=H.A.P.P.Y. Radio
TTITLE4=Ain't No Stoppin' Us Now
TTITLE5=Knock On Wood
TTITLE6=Higher And Higher (Your Love Has Lifted Me)
TTITLE7=Stop Her On Sight (S.O.S.)
TTITLE8=Give Me Just A Little More Time
TTITLE9=War '99
TTITLE10=That's The Way (I Like It)
TTITLE11=And The Beat Goes On
TTITLE12=Mustang Sally
TTITLE13=Get Down On It
TTITLE14=Oops Upside Your Head
TTITLE15=Contact
EXTD=
EXTT0=
EXTT1=
EXTT2=
EXTT3=
EXTT4=
EXTT5=
EXTT6=
EXTT7=
EXTT8=
EXTT9=
EXTT10=
EXTT11=
EXTT12=
EXTT13=
EXTT14=
EXTT15=
PLAYORDER=
